<svg width="24" height="20" viewBox="0 0 24 20" fill="none" xmlns="http://www.w3.org/2000/svg">
<path d="M23.9167 6.17719V3.21386C23.9167 1.93052 22.8667 0.880524 21.5833 0.880524H2.91668C1.63334 0.880524 0.59501 1.91886 0.59501 3.21386V6.17719C0.59501 6.98219 0.98001 7.77552 1.69168 8.14886C2.42668 8.55719 2.91668 9.32719 2.91668 10.2139C2.91668 11.1005 2.41501 11.8822 1.68001 12.2672C0.98001 12.6522 0.583344 13.4455 0.583344 14.2505V17.2139C0.583344 18.4972 1.63334 19.5472 2.91668 19.5472H21.5833C22.8667 19.5472 23.9167 18.4972 23.9167 17.2139V14.2505C23.9167 13.4455 23.52 12.6522 22.82 12.2672C22.085 11.8705 21.5833 11.1005 21.5833 10.2139C21.5833 9.32719 22.085 8.55719 22.82 8.16052C23.52 7.77552 23.9167 6.98219 23.9167 6.17719ZM13.4167 16.6305H11.0833V14.2972H13.4167V16.6305ZM13.4167 11.3805H11.0833V9.04719H13.4167V11.3805ZM13.4167 6.13052H11.0833V3.79719H13.4167V6.13052Z" fill="black"/>
</svg>
