<svg width="22" height="20" viewBox="0 0 22 20" fill="none" xmlns="http://www.w3.org/2000/svg">
<path d="M18.9167 7.06386V2.0472C18.9167 1.40553 18.3917 0.88053 17.75 0.88053H16.5833C15.9417 0.88053 15.4167 1.40553 15.4167 2.0472V3.91386L11.5317 0.413864C11.0883 0.0171969 10.4117 0.0171969 9.96833 0.413864L0.214992 9.19886C-0.181674 9.54886 0.0633256 10.2139 0.599992 10.2139H2.58333V18.3805C2.58333 19.0222 3.10833 19.5472 3.74999 19.5472H7.24999C7.89166 19.5472 8.41666 19.0222 8.41666 18.3805V12.5472H13.0833V18.3805C13.0833 19.0222 13.6083 19.5472 14.25 19.5472H17.75C18.3917 19.5472 18.9167 19.0222 18.9167 18.3805V10.2139H20.9C21.4367 10.2139 21.6933 9.54886 21.285 9.19886L18.9167 7.06386ZM8.41666 7.88053C8.41666 6.5972 9.46666 5.5472 10.75 5.5472C12.0333 5.5472 13.0833 6.5972 13.0833 7.88053H8.41666Z" fill="black"/>
</svg>
