<svg width="24" height="24" viewBox="0 0 24 24" fill="none" xmlns="http://www.w3.org/2000/svg">
<path d="M12.25 0.547211C5.81001 0.547211 0.583344 5.77388 0.583344 12.2139C0.583344 18.6539 5.81001 23.8805 12.25 23.8805C18.69 23.8805 23.9167 18.6539 23.9167 12.2139C23.9167 5.77388 18.69 0.547211 12.25 0.547211ZM12.25 4.04721C14.1867 4.04721 15.75 5.61054 15.75 7.54721C15.75 9.48388 14.1867 11.0472 12.25 11.0472C10.3133 11.0472 8.75001 9.48388 8.75001 7.54721C8.75001 5.61054 10.3133 4.04721 12.25 4.04721ZM12.25 20.6139C9.33334 20.6139 6.75501 19.1205 5.25001 16.8572C5.28501 14.5355 9.91668 13.2639 12.25 13.2639C14.5717 13.2639 19.215 14.5355 19.25 16.8572C17.745 19.1205 15.1667 20.6139 12.25 20.6139Z" fill="black"/>
</svg>
